inDegrees=no
num_controls=7
num_derivatives=13
num_iterations=102
num_multipliers=7
num_parameters=0
num_slacks=7
num_states=26
objective=0.445696
objective_accelerations=0.057349
objective_balance=0.003671
objective_effort=0.023067
objective_height=0.356044
objective_ligament=0.005564
solver_duration=1417.121633
status=Solve_Succeeded
success=true
DataType=double
version=3
OpenSimVersion=4.5
endheader
time	/jointset/ground_pelvis/pelvis_tilt/value	/jointset/ground_pelvis/pelvis_tx/value	/jointset/ground_pelvis/pelvis_ty/value	/jointset/hip_l/hip_flexion_l/value	/jointset/hip_l/hip_adduction_l/value	/jointset/hip_l/hip_rotation_l/value	/jointset/back/lumbar_extension/value	/jointset/patellofemoral_l/patellar_flexion_l/value	/jointset/knee_l/knee_flexion_l/value	/jointset/knee_l/knee_adduction_l/value	/jointset/knee_l/knee_rotation_l/value	/jointset/ankle_l/ankle_angle_l/value	/jointset/subtalar_l/subtalar_angle_l/value	/jointset/ground_pelvis/pelvis_tilt/speed	/jointset/ground_pelvis/pelvis_tx/speed	/jointset/ground_pelvis/pelvis_ty/speed	/jointset/hip_l/hip_flexion_l/speed	/jointset/hip_l/hip_adduction_l/speed	/jointset/hip_l/hip_rotation_l/speed	/jointset/back/lumbar_extension/speed	/jointset/patellofemoral_l/patellar_flexion_l/speed	/jointset/knee_l/knee_flexion_l/speed	/jointset/knee_l/knee_adduction_l/speed	/jointset/knee_l/knee_rotation_l/speed	/jointset/ankle_l/ankle_angle_l/speed	/jointset/subtalar_l/subtalar_angle_l/speed	/forceset/tau_hip_flexion_l	/forceset/tau_hip_adduction_l	/forceset/tau_hip_rotation_l	/forceset/tau_knee_flexion_l	/forceset/tau_ankle_angle_l	/forceset/tau_subtalar_angle_l	/forceset/tau_lumbar_extension	lambda_cid13_p0	lambda_cid13_p1	lambda_cid13_p2	lambda_cid13_p3	lambda_cid13_p4	lambda_cid13_p5	lambda_cid14_p0	/jointset/ground_pelvis/pelvis_tilt/accel	/jointset/ground_pelvis/pelvis_tx/accel	/jointset/ground_pelvis/pelvis_ty/accel	/jointset/hip_l/hip_flexion_l/accel	/jointset/hip_l/hip_adduction_l/accel	/jointset/hip_l/hip_rotation_l/accel	/jointset/back/lumbar_extension/accel	/jointset/patellofemoral_l/patellar_flexion_l/accel	/jointset/knee_l/knee_flexion_l/accel	/jointset/knee_l/knee_adduction_l/accel	/jointset/knee_l/knee_rotation_l/accel	/jointset/ankle_l/ankle_angle_l/accel	/jointset/subtalar_l/subtalar_angle_l/accel	gamma_cid13_p0	gamma_cid13_p1	gamma_cid13_p2	gamma_cid13_p3	gamma_cid13_p4	gamma_cid13_p5	gamma_cid14_p0
0	-0.03985349267353135	0.06905890293224988	0.8959640807164988	0.1955287580552426	-0.321868425245736	-0.4861553327805893	-0.1379045077516729	0.07015288079084905	0.07015288079084844	-0.1745329082681824	-0.1204834875896299	-0.06701059314715049	0.003999570202266526	0	0	0	0	0	0	0	0	0	0	0	0	0	0.1058644914067938	-0.09837606375721861	-0.03052435042443012	-0.2331272291511004	0.1914949169888533	-0.01602484803890116	-0.05093393608013639	25.75567236248551	-0.8020745672314625	3.506560847172805	-0.2821524275986645	-515.4325393267537	-80.23339458483474	-39.98538480496817	-4.508539128370128	-1.845049202890114	-0.9765310520297016	12.5704025917443	-2.121600830341037	3.334999423101071	-2.766121802998565	10.16639619227067	10.1663961922674	0.6672575297951439	-0.8300933744350023	2.290222086314749	-1.081701093414728	-3.67054905961597e-08	8.161987619315469e-08	1.274593970662332e-07	1.602792709766757e-08	-5.36177391115587e-08	-6.027265125815312e-08	-1.087695257322117e-08
0.01	-0.0400686716465103	0.06896731565962143	0.8959166219610486	0.1961376137107652	-0.3219728400262	-0.4859875727200718	-0.13804975953491	0.07064681372025401	0.0706468137202598	-0.1745029233986568	-0.120518689621761	-0.06690148815660273	0.003944320879830859	-0.04283375599128057	-0.01829293067144335	-0.009465829170175433	0.1213088503637048	-0.02077641074811266	0.03344713253082929	-0.02889744844054013	0.0983531339062672	0.09835313390627975	0.005988925395959347	-0.006977463614611971	0.02165668252210039	-0.01102413522433884	0.1010538642406445	-0.09983478569895966	-0.02939883130911494	-0.225807460685386	0.1790799395321717	-0.009836201355052906	-0.04709614612448751	21.96956153932442	-2.801172395578434	3.795903227629359	1.660985255413787	-516.0859868781337	-84.69667696121857	-39.99539060135366	-4.140497362415125	-1.817733215596614	-0.9277312850767454	11.84177387880051	-2.039705706568868	3.333822141315924	-2.92862013351708	9.604756368952957	9.604756368956817	0.5635319782159069	-0.6221164702442952	2.078743762657971	-1.10893772571417	-6.983904767093152e-08	1.388159622443666e-07	1.982340747681968e-07	4.912951999742491e-08	-2.477612835647474e-07	-9.042459405997834e-08	-1.353893100869742e-08
0.02	-0.04070612888498393	0.06869353543701349	0.8957752804267833	0.1979456873939475	-0.3222818278160487	-0.4854884909395943	-0.1384793985563388	0.07211127486455407	0.07211127486455399	-0.1744132848884122	-0.1206217750130845	-0.06658074585533372	0.00377959660739766	-0.08445565309887573	-0.03643858999589757	-0.01877655576296338	0.2398436055320927	-0.04091460187712178	0.06626434399134097	-0.05687744763849048	0.1941056429784623	0.1941056429785007	0.0119307281406995	-0.01357667184002441	0.04232746214421174	-0.02189498999950688	0.0962432370744692	-0.1012935076407129	-0.02827331219385024	-0.2184876922196962	0.1666649620754715	-0.003647554671227302	-0.04325835616883512	18.24626366145555	-4.812169112847386	4.088172574285029	3.451668765552272	-515.8160818422646	-88.99682974931423	-40.0248450192361	-4.266167351633026	-1.815594933492306	-0.9455105365522035	12.01558355268092	-1.993956906520332	3.209015209037546	-2.582631954480596	9.646271225456259	9.646271225455642	0.6578329995513027	-0.7544422965951003	2.093041506316919	-1.051045003580582	-1.029726047457033e-07	1.960120482955786e-07	2.690087524701604e-07	8.223111289718226e-08	-4.419048280179361e-07	-1.205765368618036e-07	-1.620090944417368e-08
0.03	-0.04175439132045278	0.0682400334543173	0.8955413763040873	0.2009250243684038	-0.3227888787072274	-0.4846650276423126	-0.1391821572374826	0.07452071631007165	0.07452071631007028	-0.1742642951119751	-0.1207895514027408	-0.06605683953273228	0.003507815766698379	-0.1249946556136126	-0.05413476850945981	-0.02799242014399792	0.3554294727795853	-0.06037789428044868	0.09827843444653518	-0.08337940723630324	0.2873327144886905	0.2873327144887688	0.01784624783057573	-0.01993358080602842	0.06240531185142835	-0.03236115315856603	0.09201001619438673	-0.09787977915384269	-0.02768298960525864	-0.2152723509928427	0.1639813523793361	-0.003708288283008836	-0.03958512619515812	17.42078911445529	-4.701948427830543	4.139923261650997	3.20049116493729	-515.8280157776161	-88.01996505370845	-40.07254596906753	-3.917452926495787	-1.727557025284888	-0.9079362594242534	11.24092060895918	-1.904912922264024	3.175089728355434	-2.639745759291687	9.093438619288754	9.093438619295586	0.5553279013200318	-0.5695300194746918	1.957882321668142	-1.029459468423374	-1.330946884002588e-07	2.090380542894711e-07	3.227228676065954e-07	1.10608414119299e-07	-6.154050063278656e-07	-1.571344605984968e-07	-2.072070262572562e-08
0.04	-0.04320198102609032	0.06761338414348608	0.8952156511634718	0.2050423864749696	-0.3234870420254445	-0.4835259266875603	-0.1401410890739767	0.07784893117178862	0.07784893117178823	-0.174056766849118	-0.1210195398466311	-0.06533360958930989	0.00313436179513754	-0.1643211071324187	-0.07106805562290408	-0.03714075934683796	0.4674486319541062	-0.07913708728478254	0.1293918754855323	-0.1081120787085155	0.3778603262182252	0.3778603262183647	0.02363842542502223	-0.02601908268689842	0.08219218630840941	-0.04222961617181686	0.0877767953143113	-0.09446605066697042	-0.02709266701666818	-0.2120570097659812	0.1612977426832052	-0.00376902189478568	-0.03591189622148061	16.65256901400164	-4.601692519768632	4.193194618337645	2.80812295941853	-515.0033692909147	-86.889203099442	-40.13696777170115	-4.023657152446852	-1.663016653468727	-0.9320055009133013	11.30224193808658	-1.853137026721724	3.028885325798131	-2.228774329360477	9.106379269317546	9.106379269321179	0.6331645804653558	-0.7001608795683021	2.034846456269791	-0.9315049744189289	-1.631546798193458e-07	2.211533369832127e-07	3.760852185664216e-07	1.388883072655881e-07	-7.884795482224703e-07	-1.938244664163213e-07	-2.527880126595954e-08
0.05	-0.04503755810484766	0.06682084892239108	0.8947984645982947	0.2102640260540612	-0.3243692970010671	-0.4820803328480383	-0.1413384332396205	0.08206985321018406	0.08206985321018098	-0.1737918192596251	-0.1213095568403201	-0.06441410409516306	0.002665101442680402	-0.2025947427743474	-0.08734480478898017	-0.04630589477969786	0.5763384127637049	-0.09719324897741202	0.1595921207452342	-0.1311323831943182	0.4658737074099305	0.4658737074098503	0.02931267971373192	-0.03193017121905888	0.1016121141959032	-0.05154711547148914	0.08305891470661129	-0.09110391166729989	-0.02634153631468894	-0.2083158837505898	0.1568982075521273	-0.003237100174996124	-0.03207300106826108	15.3442188801608	-4.668191689545856	4.277548589689192	3.077736580194223	-514.1408165989582	-86.20782851674988	-40.2162240762181	-3.699293588474448	-1.595848470967129	-0.9103278226283797	10.60119096442361	-1.763815953530748	2.995328167910774	-2.305002824259276	8.581266529065346	8.581266529030252	0.5288733697771476	-0.5284135572239859	1.881042372947052	-0.9206482471483154	-1.815423344341011e-07	2.179526868842306e-07	4.162719429972036e-07	1.548502474884604e-07	-8.932361042372625e-07	-2.199240777186297e-07	-2.957422030448191e-08
0.06	-0.04724988690370664	0.06586837732507726	0.8942893146271577	0.2165583324036532	-0.3254285056362153	-0.4803367897475478	-0.1427592493133363	0.08715739885748978	0.08715739885748161	-0.1734712656239031	-0.1216570508627681	-0.06330330403854974	0.002104910929345144	-0.2396714511526152	-0.10305533086667	-0.05553344053879789	0.6819819860543874	-0.114527819189929	0.1889817276791181	-0.1528064603228819	0.5511850480003684	0.5511850480000559	0.03475963467057631	-0.03751448843858229	0.1204510988017119	-0.06041564834743912	0.07834103409890392	-0.08774177266763027	-0.02559040561270927	-0.2045747577352032	0.1524986724210473	-0.00270517845520867	-0.02823410591504526	14.08722548903791	-4.742651868444114	4.361994351266911	3.219164999382732	-512.5273006234813	-85.38588863152192	-40.30822181157839	-3.784271699714667	-1.549772035791488	-0.9444875661613259	10.65300043430335	-1.708818730699214	2.866757660634541	-1.959528857912638	8.565971149064053	8.565971149065168	0.5877047140922976	-0.6348066170408967	1.918657799932747	-0.8417116896744806	-1.994385222360423e-07	2.141071554045022e-07	4.559039042057099e-07	1.702935370619256e-07	-9.951161134781678e-07	-2.455777776729164e-07	-3.385857914924799e-08
0.07000000000000001	-0.04982768765806547	0.06476167106210406	0.8936873529126554	0.2238942747200476	-0.3266573746812922	-0.4783036690684618	-0.1443891702985562	0.09308565669971404	0.0930856566997007	-0.1730968932122901	-0.1220593984029261	-0.06200649483738692	0.001458642275204677	-0.2756748487100445	-0.1181835276782861	-0.06487971567613809	0.7846561145276859	-0.1311099542700179	0.2175106639594703	-0.1729478897793704	0.6340216911216084	0.6340216911215099	0.04009621793746457	-0.04289747397407973	0.1388271619498753	-0.06873993410743284	0.07312310874049191	-0.08460665037087949	-0.0247867700907873	-0.2010227364399765	0.1479629732876837	-0.001681913711678732	-0.02404108567871794	12.79056817492093	-5.008279380531709	4.459465789655025	3.35813588377885	-511.1359375870765	-84.92893233641871	-40.41058854265399	-3.4763064947084	-1.478950150536117	-0.9330197428277723	9.992038154844931	-1.612568496595204	2.82613666215683	-2.006972948216533	8.075793318884854	8.075793318916332	0.5039274157917949	-0.4813511000480687	1.784538092042269	-0.8131490159352279	-2.068853571990008e-07	2.07211421879394e-07	4.697378819483951e-07	1.788885167777865e-07	-1.04141470981671e-06	-2.555591933111833e-07	-3.511333914363424e-08
0.08	-0.05275910893018956	0.06350676150167676	0.8929912639957184	0.2322404421413747	-0.3280479965971562	-0.4759892240164879	-0.1462136101700811	0.0998289374581964	0.09982893745818082	-0.1726696965114471	-0.1225138371140886	-0.06052843350078566	0.0007320583641095769	-0.3103955547055244	-0.1326959903574905	-0.07435888102577491	0.8840270070410582	-0.1468783933473658	0.2452466022566736	-0.191710237583839	0.7141896312520835	0.7141896312521966	0.04532449251654115	-0.04793272263933342	0.156701525889404	-0.07647869973836309	0.06790518338207613	-0.08147152807412866	-0.02398313456886192	-0.1974707151447515	0.1434272741543199	-0.0006586489681488998	-0.01984806544239365	11.53884559690642	-5.280343123814059	4.556328530344326	3.384369931745543	-509.0839618214316	-84.34719441583459	-40.52079376746175	-3.527733387324777	-1.426625209309141	-0.9710656086206539	9.992353242318135	-1.546079530151008	2.708158064004784	-1.683712527508652	8.032230550911033	8.032230550911697	0.5660429765299607	-0.5652592429921528	1.818317958205778	-0.7246076638617986	-2.13658040365896e-07	2.001189011255516e-07	4.819074736610272e-07	1.870416700512212e-07	-1.084127408548649e-06	-2.645294938322877e-07	-3.61726411476734e-08
